<svg version="1.0" xmlns="http://www.w3.org/2000/svg" width="24" height="24" viewBox="0 0 512 512"><g fill="#fff"><path d="M107.5 86c-27.7 1.6-43.9 6.8-61.3 19.7-24.4 18-38.4 40.9-42.7 69.6-4.5 30.6-4.5 130.8 0 161.4 4.3 28.9 18.3 51.5 43 69.8 14.2 10.5 28.8 16 49.6 18.7 15.2 1.9 304.6 1.9 319.8 0 22.9-2.9 38.9-9.6 54.6-22.5 22.1-18.3 33.9-38.8 38-66 4.5-30.6 4.5-130.8 0-161.4-2.5-16.6-7.2-29.1-15.8-41.8-13.4-19.9-34.7-36.3-55.2-42.4-18.3-5.5-14.2-5.4-171.5-5.6-80-.1-151.3.1-158.5.5zm312 44.3c11.9 2.9 19 7 29.1 17.1 14.7 14.7 17.7 23.4 19.4 55.6 1.2 22.9 1.2 83.8 0 106.2-1.7 30.6-4.7 39.9-17.1 53.2-13.1 14-23 18.7-43.4 20.6-14.9 1.4-288.1 1.4-303 0-20.4-1.9-30.3-6.6-43.4-20.6C48.7 349.1 45.6 339.5 44 309c-1.2-22.5-1.2-83.5 0-106 1.6-30.5 4.7-40.1 17.1-53.4 12.6-13.5 23.5-18.9 41.6-20.6 4.8-.4 76.5-.7 159.3-.6 137.5.2 151.1.4 157.5 1.9z"/><path d="M206.9 180.3c-6.1 2.3-10 5.8-12.5 11.1l-2.4 5.1v119.1l2.8 5.5c3.8 7.6 10.1 11.4 18.6 11.4 6-.1 7-.5 62.1-29.2 38.2-19.9 57.2-30.3 59.7-32.8 4.6-4.5 6.1-9.1 5.6-16.5-.5-6.6-3.6-12.1-9-15.6-1.8-1.2-27.7-14.8-57.6-30.3-57.9-30-59.5-30.7-67.3-27.8zM273 256c0 .3-8.6 4.9-19 10.3l-19 9.8v-40.2l19 9.8c10.4 5.4 19 10 19 10.3z"/></g></svg>